<?xml version="1.0" encoding="UTF-8" standalone="no"?>
<!-- Created with Inkscape (http://www.inkscape.org/) -->

<svg
   version="1.1"
   id="svg625"
   width="1989.3333"
   height="387.33334"
   viewBox="0 0 1989.3333 387.33334"
   sodipodi:docname="CFXS_NotPerfect.svg"
   inkscape:version="1.1.1 (3bf5ae0d25, 2021-09-20)"
   xmlns:inkscape="http://www.inkscape.org/namespaces/inkscape"
   xmlns:sodipodi="http://sodipodi.sourceforge.net/DTD/sodipodi-0.dtd"
   xmlns="http://www.w3.org/2000/svg"
   xmlns:svg="http://www.w3.org/2000/svg">
  <defs
     id="defs629" />
  <sodipodi:namedview
     id="namedview627"
     pagecolor="#505050"
     bordercolor="#ffffff"
     borderopacity="1"
     inkscape:pageshadow="0"
     inkscape:pageopacity="0"
     inkscape:pagecheckerboard="1"
     showgrid="false"
     inkscape:zoom="1"
     inkscape:cx="788.5"
     inkscape:cy="109"
     inkscape:window-width="3840"
     inkscape:window-height="2066"
     inkscape:window-x="2293"
     inkscape:window-y="-11"
     inkscape:window-maximized="1"
     inkscape:current-layer="g631" />
  <g
     inkscape:groupmode="layer"
     inkscape:label="Image"
     id="g631">
    <path
       style="fill:#ffffff;stroke-width:0.666667"
       d="M 0.4444444,388.01389 C 0.2,387.76945 0,311.49291 0,218.51047 V 49.451485 L 24.170045,25.288242 48.340091,1.125 H 217.50337 386.66665 V 40.458334 79.791668 H 232.33332 77.999999 v 115.000002 115 H 232.33332 386.66665 v 15.1701 15.17008 L 362.4966,364.2951 338.32656,388.45834 H 169.60772 c -92.795355,0 -168.9188311,-0.2 -169.1632756,-0.44445 z M 527.33331,218.62158 V 49.451485 L 551.50337,25.288242 575.67341,1.125 h 169.1633 169.16326 v 15.170092 15.170091 l -24.17006,24.163243 -24.17,24.163242 H 735.49658 605.33331 v 154.000002 154 h -39 -39 z M 1602.6666,372.62153 v -15.17014 l 23.8368,-23.82986 23.8368,-23.82986 H 1782.17 1914 V 272.45834 235.125 h -131.8368 -131.8368 l -23.8299,-23.83676 -23.8299,-23.83676 V 118.45149 49.451485 L 1626.838,25.286942 1651.0093,1.1223986 1820.0046,1.290366 1989,1.4583333 l 0.18,14.6498647 0.1802,14.649866 -24.1767,24.183468 -24.1767,24.183469 h -57.0596 c -31.3828,0 -89.9594,0.199547 -130.1702,0.44344 l -73.1104,0.443434 V 118.56844 157.125 H 1835 1989.3333 v 91.1701 91.17009 l -24.1701,24.16324 -24.17,24.16324 h -169.1633 -169.1633 z m -545.2206,10.20692 c 1.588,-1.99645 71.4373,-88.68454 155.2206,-192.6402 L 1365,1.1779455 l 48.158,-0.026473 48.1579,-0.026473 -23.8246,29.8774725 c -13.1036,16.43261 -82.3196,103.132608 -153.8133,192.666668 l -129.9888,162.7892 h -49.5652 -49.5654 z m 262.0548,-54.63215 c -25.7578,-32.02556 -48.0154,-59.71403 -49.4612,-61.52993 l -2.6288,-3.30164 23.6848,-29.61987 c 13.0266,-16.29092 23.925,-29.70844 24.2185,-29.81672 0.4852,-0.17896 146.0569,180.49533 146.5747,181.91915 0.1334,0.36678 -18.9216,0.6043 -47.6666,0.59418 l -47.8889,-0.0169 -46.8325,-58.22829 z M 617.33331,196.125 v -39 h 124.33334 124.33334 v 15.17014 15.17014 l -23.83674,23.82986 -23.8368,23.82986 H 717.82992 617.33331 Z M 1129.6666,94.742502 C 1090.4333,45.066835 1057.7818,3.6790517 1057.1078,2.7696529 l -1.2254,-1.6534525 48.1914,0.1710665 48.1914,0.1710664 50.2341,60.5553827 50.2341,60.555384 -9.5334,11.79078 c -5.2434,6.48493 -16.5834,20.54276 -25.2,31.23962 -8.6167,10.69686 -15.9667,19.4519 -16.3334,19.45562 -0.3666,0.004 -32.7666,-40.63694 -72,-90.312618 z"
       id="path1048" />
  </g>
</svg>
